<svg width="16" height="17" viewBox="0 0 16 17" fill="none" xmlns="http://www.w3.org/2000/svg">
<path d="M8.00016 0.385742C8.65735 0.385699 9.28965 0.637139 9.76735 1.08848C10.245 1.53983 10.5319 2.15685 10.5691 2.81299L10.5731 2.95866H14.7293C14.8798 2.9587 15.0246 3.01585 15.1345 3.11855C15.2444 3.22126 15.3113 3.36185 15.3215 3.51194C15.3318 3.66202 15.2847 3.81041 15.1897 3.9271C15.0948 4.0438 14.9591 4.12011 14.8101 4.14062L14.7293 4.14616H14.0992L13.0858 14.4537C13.0351 14.9675 12.8033 15.4466 12.4319 15.8054C12.0605 16.1642 11.5737 16.3793 11.0584 16.4122L10.919 16.417H5.08129C4.56469 16.417 4.06494 16.2333 3.67133 15.8987C3.27773 15.5641 3.01592 15.1005 2.9327 14.5906L2.9145 14.4529L1.90037 4.14616H1.271C1.12752 4.14615 0.988892 4.09419 0.880759 3.99988C0.772627 3.90558 0.702301 3.77531 0.682788 3.63316L0.677246 3.55241C0.677252 3.40893 0.729213 3.2703 0.82352 3.16217C0.917827 3.05404 1.0481 2.98371 1.19025 2.9642L1.271 2.95866H5.42725C5.42725 2.27628 5.69832 1.62185 6.18084 1.13933C6.66335 0.656816 7.31778 0.385742 8.00016 0.385742ZM12.9061 4.14616H3.09341L4.09645 14.3365C4.11866 14.5639 4.21886 14.7766 4.38005 14.9385C4.54123 15.1004 4.75347 15.2015 4.98075 15.2247L5.08129 15.2295H10.919C11.394 15.2295 11.797 14.893 11.8888 14.4362L11.9047 14.3365L12.9053 4.14616H12.9061ZM9.38558 6.32324C9.52906 6.32325 9.66768 6.37521 9.77582 6.46952C9.88395 6.56382 9.95427 6.6941 9.97379 6.83624L9.97933 6.91699V12.4587C9.97928 12.6091 9.92214 12.7539 9.81943 12.8638C9.71673 12.9738 9.57613 13.0406 9.42605 13.0508C9.27596 13.0611 9.12758 13.014 9.01088 12.9191C8.89419 12.8241 8.81788 12.6884 8.79737 12.5394L8.79183 12.4587V6.91699C8.79183 6.75952 8.85439 6.6085 8.96573 6.49715C9.07708 6.3858 9.22811 6.32324 9.38558 6.32324ZM6.61475 6.32324C6.75823 6.32325 6.89685 6.37521 7.00498 6.46952C7.11311 6.56382 7.18344 6.6941 7.20295 6.83624L7.2085 6.91699V12.4587C7.20845 12.6091 7.1513 12.7539 7.0486 12.8638C6.9459 12.9738 6.8053 13.0406 6.65522 13.0508C6.50513 13.0611 6.35675 13.014 6.24005 12.9191C6.12335 12.8241 6.04704 12.6884 6.02654 12.5394L6.021 12.4587V6.91699C6.021 6.75952 6.08355 6.6085 6.1949 6.49715C6.30625 6.3858 6.45727 6.32324 6.61475 6.32324ZM8.00016 1.57324C7.65247 1.57326 7.31749 1.704 7.06173 1.93953C6.80596 2.17506 6.64811 2.49815 6.6195 2.84466L6.61475 2.95866H9.38558C9.38558 2.59122 9.23962 2.23884 8.9798 1.97902C8.71998 1.71921 8.3676 1.57324 8.00016 1.57324Z" fill="#888888"/>
</svg>
