<svg width="20" height="21" viewBox="0 0 20 21" fill="none" xmlns="http://www.w3.org/2000/svg">
<path d="M10 14.25C10.9946 14.25 11.9484 13.8549 12.6517 13.1517C13.3549 12.4484 13.75 11.4946 13.75 10.5C13.75 9.50544 13.3549 8.55161 12.6517 7.84835C11.9484 7.14509 10.9946 6.75 10 6.75C9.00544 6.75 8.05161 7.14509 7.34835 7.84835C6.64509 8.55161 6.25 9.50544 6.25 10.5C6.25 11.4946 6.64509 12.4484 7.34835 13.1517C8.05161 13.8549 9.00544 14.25 10 14.25ZM10.625 1.125C10.625 0.95924 10.5592 0.800269 10.4419 0.683058C10.3247 0.565848 10.1658 0.5 10 0.5C9.83424 0.5 9.67527 0.565848 9.55806 0.683058C9.44085 0.800269 9.375 0.95924 9.375 1.125V3.025C7.60773 3.1728 5.94998 3.94196 4.69597 5.19597C3.44196 6.44998 2.6728 8.10773 2.525 9.875H0.625C0.45924 9.875 0.300269 9.94085 0.183058 10.0581C0.0658481 10.1753 0 10.3342 0 10.5C0 10.6658 0.0658481 10.8247 0.183058 10.9419C0.300269 11.0592 0.45924 11.125 0.625 11.125H2.525C2.6728 12.8923 3.44196 14.55 4.69597 15.804C5.94998 17.058 7.60773 17.8272 9.375 17.975V19.875C9.375 20.0408 9.44085 20.1997 9.55806 20.3169C9.67527 20.4342 9.83424 20.5 10 20.5C10.1658 20.5 10.3247 20.4342 10.4419 20.3169C10.5592 20.1997 10.625 20.0408 10.625 19.875V17.975C12.3922 17.827 14.0498 17.0577 15.3038 15.8038C16.5577 14.5498 17.327 12.8922 17.475 11.125H19.375C19.5408 11.125 19.6997 11.0592 19.8169 10.9419C19.9342 10.8247 20 10.6658 20 10.5C20 10.3342 19.9342 10.1753 19.8169 10.0581C19.6997 9.94085 19.5408 9.875 19.375 9.875H17.475C17.3272 8.10773 16.558 6.44998 15.304 5.19597C14.05 3.94196 12.3923 3.1728 10.625 3.025V1.125ZM10 16.75C8.3424 16.75 6.75269 16.0915 5.58058 14.9194C4.40848 13.7473 3.75 12.1576 3.75 10.5C3.75 8.8424 4.40848 7.25269 5.58058 6.08058C6.75269 4.90848 8.3424 4.25 10 4.25C11.6576 4.25 13.2473 4.90848 14.4194 6.08058C15.5915 7.25269 16.25 8.8424 16.25 10.5C16.25 12.1576 15.5915 13.7473 14.4194 14.9194C13.2473 16.0915 11.6576 16.75 10 16.75Z" fill="#888888"/>
</svg>
