<svg width="21" height="21" viewBox="0 0 21 21" fill="none" xmlns="http://www.w3.org/2000/svg">
<path d="M6.5625 9.6875C6.5625 10.0356 6.42422 10.3694 6.17808 10.6156C5.93194 10.8617 5.5981 11 5.25 11C4.9019 11 4.56806 10.8617 4.32192 10.6156C4.07578 10.3694 3.9375 10.0356 3.9375 9.6875C3.9375 9.3394 4.07578 9.00556 4.32192 8.75942C4.56806 8.51328 4.9019 8.375 5.25 8.375C5.5981 8.375 5.93194 8.51328 6.17808 8.75942C6.42422 9.00556 6.5625 9.3394 6.5625 9.6875ZM11.8125 9.6875C11.8125 10.0356 11.6742 10.3694 11.4281 10.6156C11.1819 10.8617 10.8481 11 10.5 11C10.1519 11 9.81806 10.8617 9.57192 10.6156C9.32578 10.3694 9.1875 10.0356 9.1875 9.6875C9.1875 9.3394 9.32578 9.00556 9.57192 8.75942C9.81806 8.51328 10.1519 8.375 10.5 8.375C10.8481 8.375 11.1819 8.51328 11.4281 8.75942C11.6742 9.00556 11.8125 9.3394 11.8125 9.6875ZM15.75 11C16.0981 11 16.4319 10.8617 16.6781 10.6156C16.9242 10.3694 17.0625 10.0356 17.0625 9.6875C17.0625 9.3394 16.9242 9.00556 16.6781 8.75942C16.4319 8.51328 16.0981 8.375 15.75 8.375C15.4019 8.375 15.0681 8.51328 14.8219 8.75942C14.5758 9.00556 14.4375 9.3394 14.4375 9.6875C14.4375 10.0356 14.5758 10.3694 14.8219 10.6156C15.0681 10.8617 15.4019 11 15.75 11Z" fill="black"/>
<path d="M2.84156 19.9289L2.86781 19.9237C5.26969 19.4473 6.73706 18.8186 7.41956 18.4734C8.42439 18.7414 9.46004 18.8764 10.5 18.875C16.2986 18.875 21 14.7616 21 9.6875C21 4.61338 16.2986 0.5 10.5 0.5C4.70137 0.5 0 4.61338 0 9.6875C0 11.9975 0.975187 14.1106 2.58562 15.725C2.47296 16.762 2.24221 17.7827 1.89787 18.7674L1.89394 18.7818C1.79608 19.0638 1.68928 19.3427 1.57369 19.6179C1.47 19.862 1.67081 20.135 1.932 20.093C2.23606 20.0432 2.53928 19.9885 2.84156 19.9289ZM3.89156 15.8497C3.90995 15.6575 3.88572 15.4637 3.82061 15.282C3.7555 15.1003 3.65111 14.9351 3.51487 14.7984C2.12363 13.4019 1.3125 11.6143 1.3125 9.6875C1.3125 5.498 5.25525 1.8125 10.5 1.8125C15.7448 1.8125 19.6875 5.498 19.6875 9.6875C19.6875 13.8783 15.7448 17.5625 10.5 17.5625C9.57482 17.5638 8.65346 17.4438 7.7595 17.2055C7.4471 17.1218 7.11478 17.1564 6.82631 17.3026C6.31838 17.5599 5.19881 18.0508 3.36919 18.4747C3.62444 17.6178 3.79932 16.739 3.89156 15.8497Z" fill="black"/>
</svg>
