<svg width="18" height="22" viewBox="0 0 18 22" fill="none" xmlns="http://www.w3.org/2000/svg">
<path d="M9 21.5977L0 16.0977V6.09766L9 0.0976562L18 6.09766V16.0977L9 21.5977ZM9 1.59766L1.5 6.75066V15.4447L9 19.7867L16.5 15.4447V6.75066L9 1.59766Z" fill="black"/>
<path d="M13.004 11.0977C13.004 13.3068 11.2131 15.0977 9.004 15.0977C6.79486 15.0977 5.004 13.3068 5.004 11.0977C5.004 8.88852 6.79486 7.09766 9.004 7.09766C11.2131 7.09766 13.004 8.88852 13.004 11.0977ZM6.508 11.0977C6.508 12.4762 7.62549 13.5937 9.004 13.5937C10.3825 13.5937 11.5 12.4762 11.5 11.0977C11.5 9.71915 10.3825 8.60166 9.004 8.60166C7.62549 8.60166 6.508 9.71915 6.508 11.0977Z" fill="black"/>
</svg>
