<svg width="60" height="61" viewBox="0 0 60 61" fill="none" xmlns="http://www.w3.org/2000/svg">
<path d="M57.0667 12.8667L47.6333 3.43333C45.7598 1.55743 43.2179 0.502334 40.5667 0.5H19.4333C16.7821 0.502334 14.2402 1.55743 12.3667 3.43333L2.93333 12.8667C1.05743 14.7402 0.00233403 17.2821 0 19.9333V50.5C0 53.1522 1.05357 55.6957 2.92893 57.5711C4.8043 59.4464 7.34784 60.5 10 60.5H50C52.6522 60.5 55.1957 59.4464 57.0711 57.5711C58.9464 55.6957 60 53.1522 60 50.5V19.9333C59.9977 17.2821 58.9426 14.7402 57.0667 12.8667ZM17.0667 8.13333C17.7054 7.52422 18.5508 7.17894 19.4333 7.16667H40.5667C41.4492 7.17894 42.2946 7.52422 42.9333 8.13333L48.6333 13.8333H11.3667L17.0667 8.13333ZM50 53.8333H10C9.11594 53.8333 8.2681 53.4821 7.64298 52.857C7.01786 52.2319 6.66667 51.3841 6.66667 50.5V20.5H53.3333V50.5C53.3333 51.3841 52.9821 52.2319 52.357 52.857C51.7319 53.4821 50.8841 53.8333 50 53.8333Z" fill="#333333"/>
<path d="M40 27.1667C39.1159 27.1667 38.2681 27.5179 37.643 28.143C37.0179 28.7681 36.6667 29.6159 36.6667 30.5C36.6667 32.2681 35.9643 33.9638 34.714 35.214C33.4638 36.4643 31.7681 37.1667 30 37.1667C28.2319 37.1667 26.5362 36.4643 25.286 35.214C24.0357 33.9638 23.3333 32.2681 23.3333 30.5C23.3333 29.6159 22.9821 28.7681 22.357 28.143C21.7319 27.5179 20.8841 27.1667 20 27.1667C19.1159 27.1667 18.2681 27.5179 17.643 28.143C17.0179 28.7681 16.6667 29.6159 16.6667 30.5C16.6667 34.0362 18.0714 37.4276 20.5719 39.9281C23.0724 42.4286 26.4638 43.8333 30 43.8333C33.5362 43.8333 36.9276 42.4286 39.4281 39.9281C41.9286 37.4276 43.3333 34.0362 43.3333 30.5C43.3333 29.6159 42.9821 28.7681 42.357 28.143C41.7319 27.5179 40.8841 27.1667 40 27.1667Z" fill="#333333"/>
</svg>
