<svg width="22" height="23" viewBox="0 0 22 23" fill="none" xmlns="http://www.w3.org/2000/svg">
<path d="M11 5.79766C10.5582 5.79766 10.2 6.15583 10.2 6.59766C10.2 7.03948 10.5582 7.39766 11 7.39766V5.79766ZM11.01 7.39766C11.4518 7.39766 11.81 7.03948 11.81 6.59766C11.81 6.15583 11.4518 5.79766 11.01 5.79766V7.39766ZM9 9.79766C8.55817 9.79766 8.2 10.1558 8.2 10.5977C8.2 11.0395 8.55817 11.3977 9 11.3977V9.79766ZM11 10.5977H11.8C11.8 10.1558 11.4418 9.79766 11 9.79766V10.5977ZM10.2 15.5977C10.2 16.0395 10.5582 16.3977 11 16.3977C11.4418 16.3977 11.8 16.0395 11.8 15.5977H10.2ZM9 14.7977C8.55817 14.7977 8.2 15.1558 8.2 15.5977C8.2 16.0395 8.55817 16.3977 9 16.3977V14.7977ZM13 16.3977C13.4418 16.3977 13.8 16.0395 13.8 15.5977C13.8 15.1558 13.4418 14.7977 13 14.7977V16.3977ZM20.2 11.5977C20.2 16.6787 16.081 20.7977 11 20.7977V22.3977C16.9647 22.3977 21.8 17.5623 21.8 11.5977H20.2ZM11 20.7977C5.91898 20.7977 1.8 16.6787 1.8 11.5977H0.2C0.2 17.5623 5.03532 22.3977 11 22.3977V20.7977ZM1.8 11.5977C1.8 6.51664 5.91898 2.39766 11 2.39766V0.797656C5.03532 0.797656 0.2 5.63298 0.2 11.5977H1.8ZM11 2.39766C16.081 2.39766 20.2 6.51664 20.2 11.5977H21.8C21.8 5.63298 16.9647 0.797656 11 0.797656V2.39766ZM11 7.39766H11.01V5.79766H11V7.39766ZM9 11.3977H11V9.79766H9V11.3977ZM10.2 10.5977V15.5977H11.8V10.5977H10.2ZM9 16.3977H13V14.7977H9V16.3977Z" fill="black"/>
</svg>
